<?xml version="1.0" encoding="UTF-8"?>
<!-- Generator: Adobe Illustrator 19.2.0, SVG Export Plug-In . SVG Version: 6.00 Build 0)  -->
<!DOCTYPE svg PUBLIC "-//W3C//DTD SVG 1.1//EN" "http://www.w3.org/Graphics/SVG/1.1/DTD/svg11.dtd">
<svg version="1.1" id="Layer_1" xmlns="http://www.w3.org/2000/svg" xmlns:xlink="http://www.w3.org/1999/xlink" x="0px" y="0px" viewBox="0 0 52 52" style="enable-background:new 0 0 52 52;" xml:space="preserve">
<g>
<style type="text/css">
	.st0{fill:#A3A3A3;}
	.st1{fill:#FF8833;}
	.st2{fill:#15AADC;}
	.st3{fill:#E6E6E6;}
	.st4{fill:#FFB92F;}
	.st5{fill:#8ED1E9;}
	.st6{fill:#E65C5C;}
</style>
<path class="st0" d="M30.7,24.2l0.5-1.2h1.3H44h3.1l-1.3,2.8l-1.7,3.8h3.4h1c0.8-1.2,1.3-2.7,1.3-4.3c0-4.2-3.4-7.7-7.7-7.7  c-0.1,0-0.2,0-0.2,0c-1.2-4.4-5.1-7.5-9.9-7.5c-3.3,0-6.4,1.6-8.3,4.2c-0.8-0.3-1.6-0.4-2.5-0.4c-3.2,0-5.9,2.1-6.8,5  c-3.5,0.2-6.4,3.2-6.4,7c0,3.9,3.2,7.1,7,7.1h11.6L30.7,24.2z"/>
<path class="st1" d="M8.5,19.7c0.6-0.6,1.2-1.1,1.9-1.6c-1.4-2-1.8-4.6-0.8-6.9c1.2-2.7,3.8-4.4,6.6-4.4c0.9,0,1.9,0.2,2.8,0.6  c2.1,0.9,3.5,2.6,4.1,4.6c1.2-1.3,2.7-2.3,4.4-3l-5.1-1l-1.1-5.9l-5,3.3l-5-3.4l-1.2,5.8L4.3,8.9l3.3,5l-3.4,4.9L8.5,19.7z"/>
<path class="st2" d="M12,50c-0.2,0-0.3,0-0.4-0.1c-0.5-0.2-0.7-0.8-0.4-1.3l5-10c0.2-0.5,0.8-0.7,1.3-0.4c0.5,0.2,0.7,0.8,0.4,1.3  l-5,10C12.7,49.8,12.4,50,12,50z"/>
<path class="st2" d="M4,50c-0.2,0-0.3,0-0.4-0.1c-0.5-0.2-0.7-0.8-0.4-1.3l5-10c0.2-0.5,0.8-0.7,1.3-0.4c0.5,0.2,0.7,0.8,0.4,1.3  l-5,10C4.7,49.8,4.4,50,4,50z"/>
<path class="st2" d="M4,42c-0.2,0-0.3,0-0.4-0.1c-0.5-0.2-0.7-0.8-0.4-1.3l4-8c0.2-0.5,0.8-0.7,1.3-0.4C9,32.4,9.2,33,8.9,33.5l-4,8  C4.7,41.8,4.4,42,4,42z"/>
<path class="st2" d="M26,39h-2.1l-4.8,9.6c-0.2,0.5,0,1.1,0.4,1.3C19.7,50,19.8,50,20,50c0.4,0,0.7-0.2,0.9-0.6l5-10  C26,39.3,26,39.2,26,39z"/>

	<path class="st3" d="M30.7,24.2l0.5-1.2h1.3H44h3.1l-1.3,2.8l-1.7,3.8h1.7c1.2-1.1,2-2.6,2-4.3c0-3.1-2.5-5.7-5.7-5.7   c-0.7,0-1.3,0.1-1.9,0.3c-0.2-4.4-3.8-7.8-8.2-7.8c-3.4,0-6.3,2-7.5,4.9c-0.9-0.7-2-1.1-3.2-1.1c-2.8,0-5,2.2-5,5   c0,0.1,0,0.1,0,0.2c-0.4-0.1-0.8-0.2-1.3-0.2c-2.8,0-5,2.3-5,5.1s2.3,5.1,5,5.1c0,0,6.1,0,12.5,0L30.7,24.2z"/>
	<path class="st4" d="M12.2,17.3c0.3-0.1,0.6-0.2,0.9-0.2c1.4-3,4.4-5,7.7-5.2c-0.5-1.1-1.4-2.1-2.7-2.6c-0.6-0.3-1.3-0.4-2-0.4   c-2.1,0-4,1.2-4.8,3.2c-0.5,1.3-0.5,2.7,0,4C11.6,16.4,11.9,16.9,12.2,17.3z"/>
<path class="st2" d="M13.9,35l-2.8,5.6c-0.2,0.5,0,1.1,0.4,1.3C11.7,42,11.8,42,12,42c0.4,0,0.7-0.2,0.9-0.6l3.2-6.4H13.9z"/>
<path class="st2" d="M21.9,35l-2.8,5.6c-0.2,0.5,0,1.1,0.4,1.3C19.7,42,19.8,42,20,42c0.4,0,0.7-0.2,0.9-0.6l3.2-6.4H21.9z"/>
		<polygon class="st5" points="47.5,31.6 40.9,31.6 44,25 32.5,25 27,37 33.5,37 28,50   "/>
		<polygon class="st6" points="47.5,31.6 40.9,31.6 44,25 35,25 29,37 36,37 28,50   "/>
</g>
</svg>